<svg width="32" height="32" viewBox="0 0 32 32" fill="none" xmlns="http://www.w3.org/2000/svg">
  <!-- Pin background -->
  <circle cx="16" cy="16" r="15" fill="#ff6b35" stroke="#ffffff" stroke-width="2"/>
  <!-- Fish icon -->
  <path d="M12 10c-2 0-3 1-3 3s1 3 3 3c1 0 2-1 2-2h4c0 1 1 2 2 2 2 0 3-1 3-3s-1-3-3-3c-1 0-2 1-2 2h-4c0-1-1-2-2-2z" fill="#ffffff"/>
  <circle cx="14" cy="12" r="1" fill="#ff6b35"/>
  <path d="M8 16l2-1 2 1-2 1-2-1z" fill="#ffffff"/>
  <path d="M20 16l2-1 2 1-2 1-2-1z" fill="#ffffff"/>
  <!-- Pin point -->
  <path d="M16 30c-2 0-4-2-4-4h8c0 2-2 4-4 4z" fill="#ff6b35"/>
</svg>
